<svg xmlns="http://www.w3.org/2000/svg" xmlns:xlink="http://www.w3.org/1999/xlink" width="901.1" height="436.863" viewBox="0 0 901.1 436.863"><defs><radialGradient id="a" cx="0.5" cy="0.5" r="0.5" gradientUnits="objectBoundingBox"><stop offset="0" stop-color="#fff"/><stop offset="0.015" stop-color="#fff"/><stop offset="0.384" stop-color="#ae29ff"/><stop offset="0.404" stop-color="#b843ff"/><stop offset="1" stop-color="#b023c9" stop-opacity="0"/></radialGradient><clipPath id="b"><rect width="901.1" height="321.84" fill="none"/></clipPath><clipPath id="c"><rect width="541.4" height="65.86" fill="none"/></clipPath></defs><g transform="translate(-189 -177)"><ellipse cx="145" cy="10" rx="145" ry="10" transform="translate(664 177)" fill="url(#a)" style="mix-blend-mode:screen;isolation:isolate"/><g transform="translate(0 -35.999)"><g transform="translate(639.55 378.919)"><g transform="translate(-450.55 -160.92)" clip-path="url(#b)"><path d="M33.2,210.4a4,4,0,0,1,4-4H98.6v4.8a4,4,0,0,1-4,4H33.2ZM37,315.6h4.8V264H94.6a4,4,0,0,0,4-4v-4.8H37a4,4,0,0,0-4,4v52.5a4,4,0,0,0,4,4" fill="#d2d1d3"/><path d="M33.2,210.4a4,4,0,0,1,4-4H98.6v4.8a4,4,0,0,1-4,4H33.2ZM37,315.6h4.8V264H94.6a4,4,0,0,0,4-4v-4.8H37a4,4,0,0,0-4,4v52.5a4,4,0,0,0,4,3.9Z" fill="none" stroke="#d2d1d3" stroke-miterlimit="10" stroke-width="8"/><path d="M339.5,208.2a4,4,0,0,1,4-4h62.9V209a4,4,0,0,1-4,4H339.5Zm29.1,105.2h4.7a4,4,0,0,0,4-4V232.7h-4.7a4,4,0,0,0-4,4Z" fill="#d2d1d3"/><path d="M339.5,208.2a4,4,0,0,1,4-4h62.9V209a4,4,0,0,1-4,4H339.5Zm29.1,105.2h4.7a4,4,0,0,0,4-4V232.7h-4.7a4,4,0,0,0-4,4Z" fill="none" stroke="#d2d1d3" stroke-miterlimit="10" stroke-width="8"/><path d="M255.5,274.2A32.7,32.7,0,0,1,222,306.8c-17.8-.4-31.9-15.4-31.9-33.3V206a4,4,0,0,0-4-4h-4.8v71.5c0,22.7,18,41.7,40.6,42.1a41.5,41.5,0,0,0,42.2-41.4V202h-4.8a4,4,0,0,0-4,4Z" fill="#d2d1d3"/><path d="M255.5,274.2A32.7,32.7,0,0,1,222,306.8c-17.8-.4-31.9-15.4-31.9-33.3V206a4,4,0,0,0-4-4h-4.8v71.5c0,22.7,18,41.7,40.6,42.1a41.5,41.5,0,0,0,42.2-41.4V202h-4.8a4,4,0,0,0-4,4Z" fill="none" stroke="#d2d1d3" stroke-miterlimit="10" stroke-width="8"/><path d="M551.8,276.4A32.7,32.7,0,0,1,518.3,309c-17.8-.4-31.9-15.4-31.9-33.3V208.2a4,4,0,0,0-4-4h-4.8v71.5c0,22.7,18,41.7,40.6,42.1a41.5,41.5,0,0,0,42.2-41.4V204.2h-4.8a4,4,0,0,0-4,4Z" fill="#d2d1d3"/><path d="M551.8,276.4A32.7,32.7,0,0,1,518.3,309c-17.8-.4-31.9-15.4-31.9-33.3V208.2a4,4,0,0,0-4-4h-4.8v71.5c0,22.7,18,41.7,40.6,42.1a41.5,41.5,0,0,0,42.2-41.4V204.2h-4.8a4,4,0,0,0-4,4Z" fill="none" stroke="#d2d1d3" stroke-miterlimit="10" stroke-width="8"/><path d="M664.9,268.5H649.4a4,4,0,0,0-2.8,6.8l37,36.9a4,4,0,0,0,2.8,1.2H696l-37-36.9h5.8c20.2,0,37.1-16.5,36.7-36.7a36.1,36.1,0,0,0-36.1-35.5H639.8v4a4,4,0,0,0,4,4h21.7A28.1,28.1,0,0,1,693.6,241c-.4,15.3-13.3,27.4-28.6,27.4" fill="#d2d1d3"/><path d="M664.9,268.5H649.4a4,4,0,0,0-2.8,6.8l37,36.9a4,4,0,0,0,2.8,1.2H696l-37-36.9h5.8c20.2,0,37.1-16.5,36.7-36.7a36.1,36.1,0,0,0-36.1-35.5H639.8v4a4,4,0,0,0,4,4h21.7A28.1,28.1,0,0,1,693.6,241C693.2,256.4,680.3,268.5,664.9,268.5Z" fill="none" stroke="#d2d1d3" stroke-miterlimit="10" stroke-width="8"/><path d="M834.9,201.4A54.1,54.1,0,1,0,889,255.5a54.1,54.1,0,0,0-54.1-54.1m0,99.9a45.8,45.8,0,1,1,45.8-45.8,45.8,45.8,0,0,1-45.8,45.8" fill="#d2d1d3"/><path d="M834.9,201.4A54.1,54.1,0,1,0,889,255.5a54.1,54.1,0,0,0-54.1-54.1Zm0,99.9a45.8,45.8,0,1,1,45.8-45.8,45.8,45.8,0,0,1-45.8,45.8Z" fill="none" stroke="#d2d1d3" stroke-miterlimit="10" stroke-width="8"/><path d="M633.2,6.1H606.4v4.5a4,4,0,0,0,4,4H633a46.6,46.6,0,0,1,0,93.2H610.4a4,4,0,0,0-4,4v4.5h26.8a55.1,55.1,0,0,0,0-110.1" fill="#d2d1d3"/><path d="M633.2,6.1H606.4v4.5a4,4,0,0,0,4,4H633a46.6,46.6,0,0,1,0,93.2H610.4a4,4,0,0,0-4,4v4.5h26.8a55.1,55.1,0,0,0,0-110.1Z" fill="none" stroke="#d2d1d3" stroke-miterlimit="10" stroke-width="8"/><path d="M96.9,22.6l18.8,90a4,4,0,0,0,3.9,3.2h6.1L103.5,9.5a4,4,0,0,0-3.9-3.2H98.4A4,4,0,0,0,95,8.2l-38.3,63L18.9,8.3a4,4,0,0,0-3.4-1.9H7.1L53.3,83.2a4,4,0,0,0,6.9,0Z" fill="#d2d1d3"/><path d="M96.9,22.6l18.8,90a4,4,0,0,0,3.9,3.2h6.1L103.5,9.5a4,4,0,0,0-3.9-3.2H98.4A4,4,0,0,0,95,8.2l-38.3,63L18.9,8.3a4,4,0,0,0-3.4-1.9H7.1L53.3,83.2a4,4,0,0,0,6.9,0Z" fill="none" stroke="#d2d1d3" stroke-miterlimit="10" stroke-width="8"/><path d="M418.5,24.2l66.8,90a4,4,0,0,0,3.2,1.6h8.6V6.5h-5.2a4,4,0,0,0-4,4v91.9L417.8,8a4,4,0,0,0-3.2-1.6h-5.3V78.8h5.2a4,4,0,0,0,4-4Z" fill="#d2d1d3"/><path d="M418.5,24.2l66.8,90a4,4,0,0,0,3.2,1.6h8.6V6.5h-5.2a4,4,0,0,0-4,4v91.9L417.8,8a4,4,0,0,0-3.2-1.6h-5.3V78.8h5.2a4,4,0,0,0,4-4Z" fill="none" stroke="#d2d1d3" stroke-miterlimit="10" stroke-width="8"/><path d="M840,4a57.1,57.1,0,1,0,57.1,57.1A57.1,57.1,0,0,0,840,4m0,105.4a48.3,48.3,0,1,1,48.3-48.3A48.3,48.3,0,0,1,840,109.4" fill="#d2d1d3"/><path d="M840,4a57.1,57.1,0,1,0,57.1,57.1A57.1,57.1,0,0,0,840,4Zm0,105.4a48.3,48.3,0,1,1,48.3-48.3A48.3,48.3,0,0,1,840,109.4Z" fill="none" stroke="#d2d1d3" stroke-miterlimit="10" stroke-width="8"/><path d="M292.5,76.5A32.8,32.8,0,0,1,259,109.3c-17.9-.4-32-15.5-32-33.4V8.1a4,4,0,0,0-4-4h-4.8V75.8c0,22.8,18,41.8,40.8,42.3a41.6,41.6,0,0,0,42.4-41.6V4.1h-4.8a4,4,0,0,0-4,4Z" fill="#d2d1d3"/><path d="M292.5,76.5A32.8,32.8,0,0,1,259,109.3c-17.9-.4-32-15.5-32-33.4V8.1a4,4,0,0,0-4-4h-4.8V75.8c0,22.8,18,41.8,40.8,42.3a41.6,41.6,0,0,0,42.4-41.6V4.1h-4.8a4,4,0,0,0-4,4Z" fill="none" stroke="#d2d1d3" stroke-miterlimit="10" stroke-width="8"/></g></g><g transform="translate(639.7 616.931)"><g transform="translate(-270.7 -32.93)"><path d="M4.6,47.7H28.7v3.4H1V3.1H28.3V6.5H4.6V25.2h22v3.4H4.6Z" fill="#fff"/><g clip-path="url(#c)"><path d="M4.6,47.7H28.7v3.4H1V3.1H28.3V6.5H4.6V25.2h22v3.4H4.6Z" fill="none" stroke="#fff" stroke-miterlimit="10" stroke-width="2"/></g><rect width="3.4" height="50.13" transform="translate(36.9 1)" fill="#fff"/><g clip-path="url(#c)"><rect width="3.4" height="50.13" transform="translate(36.9 1)" fill="none" stroke="#fff" stroke-miterlimit="10" stroke-width="2"/><path d="M87.5,16a17.592,17.592,0,0,1,17.7,18A17.3,17.3,0,0,1,100,46.7a17.2,17.2,0,0,1-12.6,5.2,16.6,16.6,0,0,1-8.8-2.3,16,16,0,0,1-6-6.4V64.9H69.3V16.8h3.4v8a16,16,0,0,1,6-6.4A16.7,16.7,0,0,1,87.5,16M76.9,44.3a14.7,14.7,0,0,0,20.7,0A14.2,14.2,0,0,0,101.8,34a14.2,14.2,0,0,0-4.2-10.4,14.7,14.7,0,0,0-20.7,0A14.2,14.2,0,0,0,72.7,34a14.2,14.2,0,0,0,4.2,10.4" fill="#fff"/><path d="M87.5,16a17.592,17.592,0,0,1,17.7,18A17.3,17.3,0,0,1,100,46.7a17.2,17.2,0,0,1-12.6,5.2,16.6,16.6,0,0,1-8.8-2.3,16,16,0,0,1-6-6.4V64.9H69.3V16.8h3.4v8a16,16,0,0,1,6-6.4A16.7,16.7,0,0,1,87.5,16ZM76.9,44.3a14.7,14.7,0,0,0,20.7,0A14.2,14.2,0,0,0,101.8,34a14.2,14.2,0,0,0-4.2-10.4,14.7,14.7,0,0,0-20.7,0A14.2,14.2,0,0,0,72.7,34a14.2,14.2,0,0,0,4.2,10.3Z" fill="none" stroke="#fff" stroke-miterlimit="10" stroke-width="2"/><path d="M117,23.5q3.1-7.2,11.5-7.2v3.3a11.4,11.4,0,0,0-8.2,3.1Q117,25.9,117,32V51.1h-3.4V16.8H117Z" fill="#fff"/><path d="M117,23.5q3.1-7.2,11.5-7.2v3.3a11.4,11.4,0,0,0-8.2,3.1Q117,25.9,117,32V51.1h-3.4V16.8H117Z" fill="none" stroke="#fff" stroke-miterlimit="10" stroke-width="2"/><path d="M139,7.7a2.7,2.7,0,0,1-3.8,0,2.6,2.6,0,0,1-.8-2,2.5,2.5,0,0,1,.8-1.9,2.7,2.7,0,0,1,3.8,0,2.5,2.5,0,0,1,.8,1.9,2.6,2.6,0,0,1-.8,2m-3.6,9.1h3.4V51.1h-3.4Z" fill="#fff"/><path d="M139,7.7a2.7,2.7,0,0,1-3.8,0,2.6,2.6,0,0,1-.8-2,2.5,2.5,0,0,1,.8-1.9,2.7,2.7,0,0,1,3.8,0,2.5,2.5,0,0,1,.8,1.9,2.6,2.6,0,0,1-.8,2Zm-3.6,9.1h3.4V51.1h-3.4Z" fill="none" stroke="#fff" stroke-miterlimit="10" stroke-width="2"/><path d="M165.1,16q6.1,0,9.7,3.7t3.6,10V51.1h-3.5V29.8a10.7,10.7,0,0,0-2.6-7.6,9.7,9.7,0,0,0-7.5-2.8,11.5,11.5,0,0,0-8.7,3.5q-3.4,3.5-3.4,10.2v18h-3.4V16.8h3.4v6.5Q156.4,16,165,16" fill="#fff"/><path d="M165.1,16q6.1,0,9.7,3.7t3.6,10V51.1h-3.5V29.8a10.7,10.7,0,0,0-2.6-7.6,9.7,9.7,0,0,0-7.5-2.8,11.5,11.5,0,0,0-8.7,3.5q-3.4,3.5-3.4,10.2v18h-3.4V16.8h3.4v6.5Q156.5,16,165.1,16Z" fill="none" stroke="#fff" stroke-miterlimit="10" stroke-width="2"/><path d="M203.8,51.9a17.6,17.6,0,0,1-18-17.9,18.095,18.095,0,0,1,27.1-15.6,14.1,14.1,0,0,1,5.9,6.4L216,26.5a11.6,11.6,0,0,0-4.8-5.2,14.3,14.3,0,0,0-7.4-1.9,14,14,0,0,0-10.4,4.2A14.2,14.2,0,0,0,189.3,34a14.2,14.2,0,0,0,4.2,10.4,14,14,0,0,0,10.4,4.2,14.3,14.3,0,0,0,7.4-1.9,12.9,12.9,0,0,0,5-5.2l2.9,1.7a15.5,15.5,0,0,1-6.1,6.4A17.8,17.8,0,0,1,204,52" fill="#fff"/><path d="M203.8,51.9a17.6,17.6,0,0,1-18-17.9,18.095,18.095,0,0,1,27.1-15.6,14.1,14.1,0,0,1,5.9,6.4L216,26.5a11.6,11.6,0,0,0-4.8-5.2,14.3,14.3,0,0,0-7.4-1.9,14,14,0,0,0-10.4,4.2A14.2,14.2,0,0,0,189.3,34a14.2,14.2,0,0,0,4.2,10.4,14,14,0,0,0,10.4,4.2,14.3,14.3,0,0,0,7.4-1.9,12.9,12.9,0,0,0,5-5.2l2.9,1.7a15.5,15.5,0,0,1-6.1,6.4,17.8,17.8,0,0,1-9.3,2.3Z" fill="none" stroke="#fff" stroke-miterlimit="10" stroke-width="2"/><path d="M230.3,7.7a2.7,2.7,0,0,1-3.8,0,2.6,2.6,0,0,1-.8-2,2.5,2.5,0,0,1,.8-1.9,2.7,2.7,0,0,1,3.8,0,2.5,2.5,0,0,1,.8,1.9,2.6,2.6,0,0,1-.8,2m-3.6,9.1h3.4V51.1h-3.4Z" fill="#fff"/><path d="M230.3,7.7a2.7,2.7,0,0,1-3.8,0,2.6,2.6,0,0,1-.8-2,2.5,2.5,0,0,1,.8-1.9,2.7,2.7,0,0,1,3.8,0,2.5,2.5,0,0,1,.8,1.9,2.6,2.6,0,0,1-.8,2Zm-3.6,9.1h3.4V51.1h-3.4Z" fill="none" stroke="#fff" stroke-miterlimit="10" stroke-width="2"/><path d="M258.8,16a17.2,17.2,0,0,1,12.6,5.2A17.3,17.3,0,0,1,276.6,34a17.3,17.3,0,0,1-5.2,12.7,17.2,17.2,0,0,1-12.6,5.2,16.6,16.6,0,0,1-8.8-2.3,16,16,0,0,1-6-6.4V64.9h-3.4V16.8H244v8a16,16,0,0,1,6-6.4,16.7,16.7,0,0,1,8.8-2.3M248.3,44.3a14.7,14.7,0,0,0,20.7,0A14.2,14.2,0,0,0,273.2,34,14.2,14.2,0,0,0,269,23.6a14.7,14.7,0,0,0-20.7,0A14.2,14.2,0,0,0,244.1,34a14.2,14.2,0,0,0,4.2,10.4" fill="#fff"/><path d="M258.8,16a17.2,17.2,0,0,1,12.6,5.2A17.3,17.3,0,0,1,276.6,34a17.3,17.3,0,0,1-5.2,12.7,17.2,17.2,0,0,1-12.6,5.2,16.6,16.6,0,0,1-8.8-2.3,16,16,0,0,1-6-6.4V64.9h-3.4V16.8H244v8a16,16,0,0,1,6-6.4A16.7,16.7,0,0,1,258.8,16ZM248.3,44.3a14.7,14.7,0,0,0,20.7,0A14.2,14.2,0,0,0,273.2,34,14.2,14.2,0,0,0,269,23.6a14.7,14.7,0,0,0-20.7,0A14.2,14.2,0,0,0,244.1,34a14.2,14.2,0,0,0,4.2,10.3Z" fill="none" stroke="#fff" stroke-miterlimit="10" stroke-width="2"/><path d="M288.6,7.7a2.7,2.7,0,0,1-3.8,0,2.6,2.6,0,0,1-.8-2,2.5,2.5,0,0,1,.8-1.9,2.7,2.7,0,0,1,3.8,0,2.5,2.5,0,0,1,.8,1.9,2.6,2.6,0,0,1-.8,2M285,16.8h3.4V51.1H285Z" fill="#fff"/><path d="M288.6,7.7a2.7,2.7,0,0,1-3.8,0,2.6,2.6,0,0,1-.8-2,2.5,2.5,0,0,1,.8-1.9,2.7,2.7,0,0,1,3.8,0,2.5,2.5,0,0,1,.8,1.9,2.6,2.6,0,0,1-.8,2ZM285,16.8h3.4V51.1H285Z" fill="none" stroke="#fff" stroke-miterlimit="10" stroke-width="2"/><path d="M314.7,51.9a17.5,17.5,0,0,1-12.8-5.2A17.2,17.2,0,0,1,296.6,34a17.2,17.2,0,0,1,5.3-12.7,18.3,18.3,0,0,1,25.5,0A17.2,17.2,0,0,1,332.7,34a17.2,17.2,0,0,1-5.3,12.7,17.5,17.5,0,0,1-12.7,5.2m-10.3-7.6a14.6,14.6,0,0,0,20.6,0A14.2,14.2,0,0,0,329.2,34,14.2,14.2,0,0,0,325,23.6a14.6,14.6,0,0,0-20.6,0A14.2,14.2,0,0,0,300.1,34a14.2,14.2,0,0,0,4.2,10.4" fill="#fff"/><path d="M314.7,51.9a17.5,17.5,0,0,1-12.8-5.2A17.2,17.2,0,0,1,296.6,34a17.2,17.2,0,0,1,5.3-12.7,18.3,18.3,0,0,1,25.5,0A17.2,17.2,0,0,1,332.7,34a17.2,17.2,0,0,1-5.3,12.7A17.5,17.5,0,0,1,314.7,51.9Zm-10.3-7.6a14.6,14.6,0,0,0,20.6,0A14.2,14.2,0,0,0,329.2,34,14.2,14.2,0,0,0,325,23.6a14.6,14.6,0,0,0-20.6,0A14.2,14.2,0,0,0,300.1,34a14.2,14.2,0,0,0,4.2,10.3Z" fill="none" stroke="#fff" stroke-miterlimit="10" stroke-width="2"/><path d="M389.5,3.1H393v48h-3.4v-8a16,16,0,0,1-6,6.4,16.6,16.6,0,0,1-8.8,2.3,17.2,17.2,0,0,1-12.6-5.2A17.3,17.3,0,0,1,357,34a17.3,17.3,0,0,1,5.2-12.7A17.2,17.2,0,0,1,374.8,16a16.7,16.7,0,0,1,8.8,2.3,16,16,0,0,1,6,6.4ZM364.6,44.3a14.7,14.7,0,0,0,20.7,0A14.2,14.2,0,0,0,389.5,34a14.2,14.2,0,0,0-4.2-10.4,14.7,14.7,0,0,0-20.7,0A14.2,14.2,0,0,0,360.4,34a14.2,14.2,0,0,0,4.2,10.4" fill="#fff"/><path d="M389.5,3.1H393v48h-3.4v-8a16,16,0,0,1-6,6.4,16.6,16.6,0,0,1-8.8,2.3,17.2,17.2,0,0,1-12.6-5.2A17.3,17.3,0,0,1,357,34a17.3,17.3,0,0,1,5.2-12.7A17.2,17.2,0,0,1,374.8,16a16.7,16.7,0,0,1,8.8,2.3,16,16,0,0,1,6,6.4ZM364.6,44.3a14.7,14.7,0,0,0,20.7,0A14.2,14.2,0,0,0,389.5,34a14.2,14.2,0,0,0-4.2-10.4,14.7,14.7,0,0,0-20.7,0A14.2,14.2,0,0,0,360.4,34a14.2,14.2,0,0,0,4.2,10.3Z" fill="none" stroke="#fff" stroke-miterlimit="10" stroke-width="2"/><path d="M419.2,16a15.2,15.2,0,0,1,12.1,5.4,18.8,18.8,0,0,1,4.6,12.7v1.6H405.2a13.9,13.9,0,0,0,4.6,9.3,15.4,15.4,0,0,0,16.9,1.8,11.6,11.6,0,0,0,4.6-4.5l3,1.8a15.1,15.1,0,0,1-6,5.7,18.1,18.1,0,0,1-8.8,2.1,17.3,17.3,0,0,1-12.8-5,17.5,17.5,0,0,1-5-12.9,17.8,17.8,0,0,1,4.9-12.8A16.7,16.7,0,0,1,419.2,16m0,3.3a13.5,13.5,0,0,0-9.6,3.6,14.3,14.3,0,0,0-4.4,9.4h27.2a14.2,14.2,0,0,0-4.3-9.6,12.7,12.7,0,0,0-8.9-3.5" fill="#fff"/><path d="M419.2,16a15.2,15.2,0,0,1,12.1,5.4,18.8,18.8,0,0,1,4.6,12.7v1.6H405.2a13.9,13.9,0,0,0,4.6,9.3,15.4,15.4,0,0,0,16.9,1.8,11.6,11.6,0,0,0,4.6-4.5l3,1.8a15.1,15.1,0,0,1-6,5.7,18.1,18.1,0,0,1-8.8,2.1,17.3,17.3,0,0,1-12.8-5,17.5,17.5,0,0,1-5-12.9,17.8,17.8,0,0,1,4.9-12.8A16.7,16.7,0,0,1,419.2,16Zm0,3.3a13.5,13.5,0,0,0-9.6,3.6,14.3,14.3,0,0,0-4.4,9.4h27.2a14.2,14.2,0,0,0-4.3-9.6,12.7,12.7,0,0,0-8.9-3.4Z" fill="none" stroke="#fff" stroke-miterlimit="10" stroke-width="2"/><rect width="3.4" height="50.13" transform="translate(444 1)" fill="#fff"/><rect width="3.4" height="50.13" transform="translate(444 1)" fill="none" stroke="#fff" stroke-miterlimit="10" stroke-width="2"/><path d="M500.8,16.8V51.1h-3.5v-31h-15v31h-3.5v-31h-5.9V16.8h5.9V14.9q0-12.6,13.7-12.6a32.3,32.3,0,0,1,6.7.8V6.2a37.7,37.7,0,0,0-6.7-.6q-5.3,0-7.8,2.2t-2.5,7.1v1.9Z" fill="#fff"/><path d="M500.8,16.8V51.1h-3.5v-31h-15v31h-3.5v-31h-5.9V16.8h5.9V14.9q0-12.6,13.7-12.6a32.3,32.3,0,0,1,6.7.8V6.2a37.7,37.7,0,0,0-6.7-.6q-5.3,0-7.8,2.2t-2.5,7.1v1.9Z" fill="none" stroke="#fff" stroke-miterlimit="10" stroke-width="2"/><path d="M527.1,16q6.1,0,9.7,3.7t3.6,10V51.1h-3.5V29.8a10.7,10.7,0,0,0-2.6-7.6,9.7,9.7,0,0,0-7.5-2.8,11.5,11.5,0,0,0-8.7,3.5q-3.4,3.5-3.4,10.2v18h-3.4V16.8h3.4v6.5Q518.4,16,527,16" fill="#fff"/><path d="M527.1,16q6.1,0,9.7,3.7t3.6,10V51.1h-3.5V29.8a10.7,10.7,0,0,0-2.6-7.6,9.7,9.7,0,0,0-7.5-2.8,11.5,11.5,0,0,0-8.7,3.5q-3.4,3.5-3.4,10.2v18h-3.4V16.8h3.4v6.5Q518.5,16,527.1,16Z" fill="none" stroke="#fff" stroke-miterlimit="10" stroke-width="2"/></g></g></g></g></g></svg>