<svg xmlns="http://www.w3.org/2000/svg" width="47.972" height="47.972" viewBox="0 0 47.972 47.972"><path d="M38.134,0H9.838A9.849,9.849,0,0,0,0,9.838v28.3a9.849,9.849,0,0,0,9.838,9.838h28.3a9.849,9.849,0,0,0,9.838-9.838V9.838A9.849,9.849,0,0,0,38.134,0ZM28.911,31.907l-.869,6.951a2.811,2.811,0,0,1-2.789,2.462H22.72a2.811,2.811,0,0,1-2.789-2.462l-.869-6.951a4.963,4.963,0,0,1,4.924-5.578A4.216,4.216,0,1,1,28.2,22.112a4.221,4.221,0,0,1-4.216,4.216A4.963,4.963,0,0,1,28.911,31.907ZM23.986,15.085a7.958,7.958,0,0,0-6.7,12.263,7.78,7.78,0,0,0-1.038,3.192,10.775,10.775,0,1,1,15.473,0,7.781,7.781,0,0,0-1.038-3.192,7.958,7.958,0,0,0-6.7-12.263ZM31,37.869l.433-3.461a13.586,13.586,0,1,0-14.889,0l.433,3.461a16.4,16.4,0,1,1,14.024,0Z" fill="#fff"/></svg>