<svg xmlns="http://www.w3.org/2000/svg" width="34" height="34" viewBox="0 0 34 34"><g transform="translate(-597.508 -693.508)"><path d="M17,1A16,16,0,0,0,5.686,28.314,16,16,0,0,0,28.314,5.686,15.9,15.9,0,0,0,17,1m0-1A17,17,0,1,1,0,17,17,17,0,0,1,17,0Z" transform="translate(597.508 693.508)" fill="#fff"/><g transform="translate(622.105 706.506) rotate(90)"><path d="M7.853,7.249.73.126a.427.427,0,0,0-.6.6L6.945,7.55.126,14.369a.426.426,0,0,0,0,.6.43.43,0,0,0,.3.127.417.417,0,0,0,.3-.127L7.85,7.85A.425.425,0,0,0,7.853,7.249Z" transform="translate(0 0)" fill="#fff"/></g></g></svg>