<svg xmlns="http://www.w3.org/2000/svg" xmlns:xlink="http://www.w3.org/1999/xlink" width="1280" height="1280" viewBox="0 0 1280 1280"><defs><clipPath id="a"><rect width="1280" height="1280" fill="none"/></clipPath><clipPath id="c"><rect width="2156.664" height="1650.441" fill="none"/></clipPath><clipPath id="d"><rect width="1280" height="1277.627" fill="none"/></clipPath></defs><g transform="translate(640 640)"><g transform="translate(-640 -640)" clip-path="url(#a)"><g clip-path="url(#a)"><g transform="translate(-210.091 -253.983)" opacity="0.16"><g clip-path="url(#c)"><g transform="translate(210.091 256.356)" clip-path="url(#d)"><path d="M624,1367.468c42.943-25.386,87.9-47.333,128.712-76.4,20.76-14.828,39.978-31.436,54.806-52.552,10.083-14.473,21-28.471,29.538-43.774a118.151,118.151,0,0,0,13.286-36.419c4.389-25.268-.83-45.316-27.759-60.738-18.625-10.8-39.385-16.133-60.026-21q-52.2-12.1-104.867-23.133a237.851,237.851,0,0,0-81.379-3.084,466.944,466.944,0,0,0-75.685,16.726c-12.812,4.033-26.336,5.576-39.266,8.779-29.3,7.355-58.365,4.389-86.955-3.2-34.877-9.134-63.229-28.827-86.006-57.653-18.269-23.133-30.725-49.231-41.757-76.278s-21.472-57.3-23.963-88.141c-2.728-33.928,5.931-64.059,31.081-87.31,22.9-21.353,47.1-40.808,70.228-61.687,33.572-30.132,62.28-64.771,83.159-105.1,13.168-25.268,23.37-52.552,23.844-81.616.593-34.4-5.931-67.737-26.217-96.682-13.286-18.743-26.929-37.249-40.1-56.111-11.744-16.727-22.065-34.758-25.98-54.688-2.847-14.473,1.424-29.894,7.592-43.893,7.948-18.032,19.692-32.979,33.453-46.621,28-27.64,59.314-49.468,96.089-64.178,29.064-11.744,57.772-11.151,86.955-3.084,22.421,6.05,42.469,18.15,62.043,30.369s41.876,28.115,63.585,40.452a278.9,278.9,0,0,0,107.952,34.877c37.961,4.152,76.159,6.406,114.12,10.8,44.96,5.22,88.26,16.608,127.407,41.639,18.625,11.981,35.351,25.98,51.366,41.045,26.217,24.437,52.434,48.993,77.583,74.5,35,35.707,62.873,76.4,79.837,124.2,7.474,21.116,12.812,42.943,14.235,65.246,1.78,29.42-.83,58.84-4.745,88.022-5.1,38.91-13.405,77.346-14.117,116.849-.593,28.471,2.254,56.823,14,82.921a89.8,89.8,0,0,0,24.319,31.792c17.794,14.947,37.605,26.1,58.84,34.877,31.2,13.049,58.6,31.792,78.057,60.619,7.236,10.558,13.286,21.946,14.473,35.233,2.728,30.25-19.93,55.993-49.349,52.2-16.134-2.017-30.25-8.423-44.249-16.133s-27.4-17.557-42.232-23.014c-23.489-8.541-46.265-3.44-63.348,14.947-12.693,13.642-24.2,28.827-28.827,47.926a105.224,105.224,0,0,0,.119,50.18c12.1,50.654,44.842,86.836,80.549,120.764" transform="translate(41.391 24.399)" fill="none" stroke="#fff" stroke-miterlimit="10" stroke-width="2.384"/><path d="M661.857,1362.123c39.622-21.472,80.43-40.69,117.323-67.381a342.009,342.009,0,0,0,67.5-64.178c14.71-18.387,29.42-36.893,43.181-55.993,11.626-16.134,23.133-32.741,28.589-52.315,4.864-17.438,5.931-35.707-6.88-50.536a72.6,72.6,0,0,0-23.014-17.794c-18.15-8.66-38.08-9.609-57.772-11.151s-40.1-2.61-60.145-4.033c-39.978-2.966-78.888-12.456-118.035-20.285-23.963-4.745-48.163-7.236-72.838-5.457-20.879,1.542-40.69,5.931-60.5,11.744s-42.469,13.524-64.3,18.032c-32.267,6.88-64.415,4.982-95.614-7.829-43.181-17.676-67.144-53.027-84.226-94.665-7.829-19.1-13.88-38.91-15.778-59.314-3.8-39.147,3.322-76.4,27.522-107.833,12.93-16.608,28.589-30.962,43.655-45.672,28.471-27.878,55.4-57.06,78.295-89.92a290.64,290.64,0,0,0,46.5-108.07c4.982-23.726,3.8-47.57-1.068-70.94a174.384,174.384,0,0,0-24.319-59.2q-20.76-32.267-39.978-65.72c-22.658-39.859-8.3-79.481,18.862-106.172a179.247,179.247,0,0,1,80.43-45.909c11.744-3.084,24.912-3.44,36.893-1.779,18.981,2.728,38.08,6.287,55.518,15.54,25.505,13.761,51.01,27.522,76.99,40.571a341.768,341.768,0,0,0,135,35.47c36.656,2.017,73.312,4.271,109.85,7.948,45.079,4.626,87.9,17.913,124.441,46.384,23.133,17.913,44.842,37.605,66.669,57.3,25.505,23.014,50.417,46.858,72.838,73.312s39.5,59.2,50.892,93.479,11.151,68.211,6.406,102.614c-5.813,42.469-17.557,83.277-30.369,124.085a961.3,961.3,0,0,0-26.335,103.088c-5.457,28-6.169,56.823-9.728,85.175A358.256,358.256,0,0,1,1139.574,1041c-8.3,23.251-19.218,45.909-21.353,70.821-2.966,33.216,5.1,63.822,22.539,92.53,26.217,43.181,58.246,81.616,93.123,117.561" transform="translate(48.134 30.93)" fill="none" stroke="#fff" stroke-miterlimit="10" stroke-width="2.384"/><path d="M687.9,1175.237c30.487-17.794,59.2-38.792,84.463-64.178,27.166-27.166,54.925-53.739,82.921-79.956,18.032-16.964,37.843-31.792,60.026-42.943s38.08-6.88,53.857,11.388c23.014,26.573,45.2,53.976,68.33,80.43,39.978,45.672,79.955,91.7,124.678,132.627" transform="translate(128.144 180.566)" fill="none" stroke="#fff" stroke-miterlimit="10" stroke-width="2.384"/><path d="M682.8,1189.369c35.707-18.031,68.093-41.164,99.055-66.55,23.014-18.862,45.672-38.317,69.635-56.111,17.794-13.286,38.2-22.065,59.67-27.4,6.525-1.661,13.88.237,20.76.949,21.116,2.135,39.385,11.981,56.467,23.963,28.945,20.286,53.5,45.553,78.651,70.347" transform="translate(127.194 191.109)" fill="none" stroke="#fff" stroke-miterlimit="10" stroke-width="2.384"/><path d="M654.5,1338.3c32.267-19.1,65.008-37.487,94.072-61.45s53.027-53.027,62.992-90.869c5.1-19.455,1.068-42.232-18.387-58.365s-42.588-23.726-65.72-31.081A520.1,520.1,0,0,0,670.63,1082.3c-17.083-3.321-34.4-6.287-51.722-6.643s-37.368,1.542-55.755,4.152c-14.591,2.135-28.708,6.88-43.062,10.321-11.744,2.847-23.607,5.576-35.47,7.948s-20.523,4.864-31.081,5.694c-52.552,3.559-102.02-6.287-144.252-40.571-24.556-20.048-43.655-45.316-58.6-73.668-10.321-19.455-19.93-39.266-29.42-59.077L204.3,889.889c-6.525-18.387-14.354-36.3-16.133-56.111-1.542-16.015-4.033-30.25,3.084-44.723,0,0,12.575-19.336,23.488-28.115s22.658-17.32,37.724-28.589c22.3-16.608,46.265-31.081,67.737-48.519,23.963-19.455,43.418-43.418,59.907-69.872,18.743-30.013,32.386-61.449,32.03-98.224-.119-21.353-2.491-42.469-12.1-61.331s-21.709-34.758-33.572-51.366c-14-19.455-29.776-37.605-43.181-57.535-15.422-22.9-18.387-48.282-7.118-74.024a161.1,161.1,0,0,1,33.1-48.282c38.791-39.5,79.837-75.922,131.44-97.512,16.371-6.88,33.572-12.575,51.722-11.151,27.285,2.135,53.027,9.253,77.227,23.37,28.234,16.489,53.739,37.012,79.956,56.467,12.575,9.372,25.861,18.387,39.859,25.268,35.351,17.082,72.956,25.98,111.867,29.894,42.113,4.152,84.463,7.118,126.1,15.9,38.08,8.067,73.194,23.488,103.681,47.214,27.166,21.234,52.078,45.553,77.227,69.4,39.859,37.961,77.583,77.7,103.325,127.526,14,27.047,25.505,54.925,31.911,84.819,5.338,25.505,6.287,51.6,5.694,77.583-.712,34.046-4.982,68.093-1.779,102.139,1.779,18.862,3.2,38.08,7.948,56.348,6.169,23.251,20.523,42.588,37.843,58.721,26.1,24.319,53.5,47.451,79.362,72.126s46.621,48.756,61.568,80.43c12.337,26.1,11.744,51.841,3.2,77.227-10.8,32.267-32.86,56.7-60.026,76.159-19.1,13.642-40.334,23.133-62.517,30.369-8.66,2.847-17.557,10.8-16.608,16.727,1.3,8.541,2.61,17.557,6.643,24.793,10.558,18.862,22.3,37.249,34.284,55.281" transform="translate(34.734 18.922)" fill="none" stroke="#fff" stroke-miterlimit="10" stroke-width="2.384"/><path d="M769,1141.251c17.2-12.693,33.572-26.454,51.366-38.2,21.828-14.473,44.6-27.522,71.177-30.843,18.743-2.254,37.131,1.068,54.213,8.3,21.234,8.9,41.639,20.167,59.433,34.877,23.607,19.574,46.384,40.215,67.974,61.924" transform="translate(143.252 197.233)" fill="none" stroke="#fff" stroke-miterlimit="10" stroke-width="2.384"/><path d="M1493.514,1321.728c-2.729-32.86,8.067-63.229,18.269-89.09,3.084-7.711,6.287-15.54,9.49-23.133,6.525-15.54,13.168-31.555,18.506-47.807a202.968,202.968,0,0,0,10.44-66.195c-.237-18.031-6.406-34.046-13.88-51.6-12.693-30.013-33.1-55.992-51.129-77.82l-17.794-21.472c-19.336-23.37-39.385-47.57-58.246-72.007s-32.267-47.926-39.5-70.347a408.1,408.1,0,0,1-11.981-47.333c-3.084-15.54-4.982-31.081-6.88-49.587-.83-7.948-1.3-16.015-1.9-23.844-.712-10.8-1.423-21.946-2.966-32.741-5.931-39.5-18.98-77.583-39.622-116.493A556.132,556.132,0,0,0,1223.872,416c-19.455-20.879-39.978-41.52-59.907-61.331l-29.182-29.42c-28.115-28.589-62.754-49.587-105.935-64.3-17.794-6.05-36.893-9.728-55.4-13.168L962.3,245.651c-15.184-2.966-30.843-4.982-45.909-6.88-23.844-3.084-48.519-6.287-72.245-13.168-25.742-7.474-55.637-17.913-81.379-38.08-22.184-17.32-44.6-37.842-68.8-62.754s-56.349-47.689-94.428-65.72c-22.539-10.677-47.1-17.794-74.973-21.828-21.709-3.084-41.283,3.084-61.687,19.455-15.3,12.219-28.708,27.166-41.757,41.639-6.05,6.762-12.219,13.642-18.625,20.285-32.267,33.335-57.06,58.6-80.311,81.972-7.711,7.592-15.659,15.184-23.488,22.421-11.151,10.439-22.539,21.116-33.1,32.386-16.252,17.32-25.149,37.249-26.335,59.2-.356,5.338-.356,11.27,1.424,15.778l.83,2.135c4.864,12.456,9.965,25.268,19.218,35.114l29.183,30.725,34.758,36.656c13.642,14.591,28.708,32.5,37.487,55.4,12.219,31.911,11.744,62.992-1.424,92.174-15.778,35-40.1,62.636-74.38,84.463-18.743,12.1-39.266,20.76-59.077,29.183-7.711,3.322-15.778,6.762-23.488,10.321l-2.135,1.068c-4.271,2.254-8.778,4.271-13.168,6.406-9.728,4.627-19.811,9.372-28.471,15.54-22.539,16.371-37.249,34.758-44.842,56.467-6.287,18.15-13.049,41.994-8.541,66.195,3.915,20.641,13.168,39.978,27.64,57.3,35.944,43.3,65.364,80.193,91.937,119.933a295.632,295.632,0,0,0,23.133,30.25v.237l7.355,9.609c18.387,20.76,37.487,42.232,62.28,57.06,31.318,18.625,63.941,30.369,97.038,34.64,25.386,3.322,47.689,3.8,68.211,1.186,8.541-1.068,17.2-2.61,25.505-4.271l16.252-2.847,14.473-2.373c17.2-2.847,35-5.813,52.552-8.067,10.8-1.3,21.828-1.186,32.385-.949h3.915c19.692.474,37.843,6.762,53.027,12.812a88.5,88.5,0,0,1,35.826,26.573c14,17.32,13.761,39.266-.474,61.924s-32.623,40.334-59.907,59.314" transform="translate(19.59 4.418)" fill="none" stroke="#fff" stroke-miterlimit="10" stroke-width="2.384"/><path d="M812.706,790.059c-3.2-.119-6.406-.712-9.609-.356a162.4,162.4,0,0,1-51.129-1.9c-15.659-3.2-27.4-11.27-35.114-25.387a201.2,201.2,0,0,1-18.981-50.773c-3.322-13.879-7.355-27.64-11.032-41.4s-7.355-27.047-11.032-40.571-6.643-24.437-9.728-36.775c-1.779-7-3.2-14.117-4.508-21.234-2.847-16.133-6.287-32.03-7.948-48.282-2.847-29.42-3.8-58.958,4.033-87.785,3.44-12.812,9.134-24.793,19.455-34.639,21-20.167,46.5-30.369,73.55-38.08,31.081-8.779,61.568-5.22,91.225,5.338a182.805,182.805,0,0,1,60.738,36.656c24.912,22.421,50.536,43.892,74.736,67.025,19.574,18.625,34.521,40.571,43.774,66.669,6.643,18.743,6.05,37.131,4.271,56.111-3.8,40.1-20.523,75.329-42.469,107.24a180.316,180.316,0,0,1-79.006,64.415c-19.455,8.185-39.266,15.066-60.382,17.794-10.2,1.3-20.167,3.677-30.25,5.694" transform="translate(121.374 64.302)" fill="none" stroke="#fff" stroke-miterlimit="10" stroke-width="2.384"/><path d="M417.59,818.931l-8.9-1.186c-21.234-2.61-34.639-20.76-30.369-42.825,5.457-28,22.9-44.841,47.926-56.111,16.845-7.592,39.5-.83,47.57,9.965,10.083,13.4,9.134,27.284,3.2,41.757-8.9,21.828-26.336,34.165-46.621,43.418-3.915,1.779-7.948,3.2-11.982,4.864" transform="translate(70.328 130.927)" fill="none" stroke="#fff" stroke-miterlimit="10" stroke-width="2.384"/><path d="M727.142,855.235c-9.372-.83-18.743-1.542-28.115-2.728-25.268-3.2-39.029-31.081-38.2-52.315.83-19.218,1.9-38.436.83-57.535-1.3-22.658-2.847-45.672-7.829-67.618-6.05-27.166-15.778-53.383-23.844-80.193-5.576-18.387-10.677-36.775-16.252-55.162a284.345,284.345,0,0,1-11.388-62.4c-1.779-26.217-2.254-52.552,10.8-76.753,7-13.049,18.269-20.76,30.606-27.4a236.191,236.191,0,0,1,61.805-23.014c15.9-3.559,31.674-8.423,47.807-11.032a204.159,204.159,0,0,1,40.215-2.254c21.59.949,42.943,3.559,63.585,11.27,26.454,9.846,49.468,25.149,70.821,43.3,15.184,12.93,29.657,26.691,44.367,39.978,22.3,20.048,44.13,40.571,61.094,65.483,13.286,19.218,22.421,40.808,24.675,64.534,1.9,20.048-.712,40.215-5.457,59.67a299.771,299.771,0,0,1-59.314,119.459,202.379,202.379,0,0,1-87.429,62.754c-18.506,6.762-37.605,11.744-56.349,17.438-26.691,8.067-53.383,16.015-80.193,23.607-13.761,4.033-27.64,7.118-41.52,10.558" transform="translate(112.035 60.338)" fill="none" stroke="#fff" stroke-miterlimit="10" stroke-width="2.384"/><path d="M714.163,903.536c-12.93-1.779-25.98-2.728-38.791-5.457-35-7.236-59.077-28-71.177-62.4-3.8-10.914-1.9-22.658.119-33.928,3.559-20.285,8.9-40.334,11.27-60.619s-.237-37.249-4.389-55.993c-6.169-27.522-19.218-52.078-30.25-77.464s-19.93-48.875-22.777-75.448c-1.779-16.964-3.915-34.046-5.22-51.01C551.523,462,550.1,442.665,550.1,423.447a295.066,295.066,0,0,1,3.447-45.005c2.6-16.444,13.754-26.646,28.82-32.1,8.66-3.2,17.676-6.169,26.81-7.592,22.3-3.559,44.6-6.406,67.025-9.134,25.505-3.084,51.01-6.643,76.634-8.541,32.267-2.491,64.652-3.084,96.682,3.8,36.063,7.592,67.5,24.437,94.9,49.468,22.777,20.76,46.384,40.571,68.567,62.161,17.2,16.727,34.284,34.165,48.282,53.5,16.489,22.658,26.454,49.112,27.522,77.7.83,23.844-3.44,47.1-9.49,69.991-9.846,37.249-27.641,70.7-47.1,103.444a232.037,232.037,0,0,1-70.347,73.905c-18.031,12.1-38.2,20.879-58.958,27.522-43.655,14.117-87.31,27.878-129.661,45.553-18.625,7.711-37.961,13.642-58.247,15.3" transform="translate(102.475 57.117)" fill="none" stroke="#fff" stroke-miterlimit="10" stroke-width="2.384"/><path d="M846.081,629.519l-7.236-.593c-23.488-3.322-39.147-16.133-48.4-38.792-10.2-24.912-6.525-48.044,4.271-70.94,5.338-11.27,24.912-20.048,37.842-18.98,33.335,2.847,54.095,22.184,65.72,52.79,4.508,11.863.712,24.556-3.084,35.826-7.829,23.014-26.217,34.4-48.282,40.689" transform="translate(146.126 90.793)" fill="none" stroke="#fff" stroke-miterlimit="10" stroke-width="2.384"/><path d="M847.862,687.763l-11.981-.83C797.919,684.2,772.651,663.8,757.111,628.8c-9.49-21.353-14.235-43.655-15.778-66.669-.712-10.439.475-21.234,2.017-31.792,2.728-19.1,5.338-38.317,15.3-55.518s25.031-30.725,45.791-31.318c12.456-.474,25.742,2.847,37.368,7.711,20.641,8.66,40.571,19.1,58.009,33.809,19.455,16.371,35.351,35.47,44.6,59.551a69.28,69.28,0,0,1,4.389,31.792c-2.254,23.37-8.779,45.672-22.658,64.178C917.734,651.7,905.871,660.6,894.6,669.138c-13.524,10.2-29.182,15.778-45.79,18.625" transform="translate(138.059 80.237)" fill="none" stroke="#fff" stroke-miterlimit="10" stroke-width="2.384"/><path d="M771.567,949.4c-2.135-.237-4.271-.949-6.406-.712-43.181,4.508-83.633-6.05-123.136-22.9-16.727-7.118-34.165-12.812-51.722-18.031-6.643-1.9-14.235-.949-21.353-.593-26.454,1.661-50.536,10.914-74.143,22.539-18.625,9.372-37.842,18.862-57.891,23.726-41.4,9.965-83.158-2.61-101.427-50.536-12.575-33.335-4.745-64.059,9.609-94.31s39.147-50.536,63.348-71.533c20.76-18.032,42.706-34.877,62.28-53.976a168.691,168.691,0,0,0,42.825-69.16,464.314,464.314,0,0,0,21.472-113.053c1.9-29.3-1.186-58.484-7.118-87.073-4.864-23.251-12.693-45.791-19.336-68.686-3.084-10.558-6.643-21-5.338-32.5,2.373-20.285,20.048-36.656,39.859-34.165a617.1,617.1,0,0,1,65.839,11.388C640.008,297.064,671.089,303,703,303.589c24.082.356,48.163,0,72.363,0,27.285.119,54.688-.949,81.854.593,43.655,2.373,85.412,12.93,121.357,40.215,19.692,14.947,38.2,31.555,56.7,48.163s39.859,36.893,59.2,55.874c22.658,22.184,40.571,47.926,51.959,77.939a148.045,148.045,0,0,1,9.372,61.094c-2.135,44.367-13.524,86.124-32.623,125.509-14.354,29.539-29.657,58.721-46.146,87.073s-37.368,49.349-62.517,67.144c-16.371,11.626-35.589,19.1-55.162,25.031Q902.77,909.305,846.54,927.574c-22.777,7.355-44.96,16.489-68.8,19.692-1.779.356-3.44,1.542-5.22,2.254" transform="translate(61.323 49.449)" fill="none" stroke="#fff" stroke-miterlimit="10" stroke-width="2.384"/><path d="M768.563,982.473c-11.981-.593-23.963-.593-35.944-1.779-29.539-2.966-58.365-9.49-86.717-18.15-21.946-6.643-43.892-13.286-66.906-12.456a162.049,162.049,0,0,0-42.706,6.524c-28.589,8.9-56.467,20.523-85.056,29.539-35.351,11.032-69.872,7-100.834-14.117-10.2-6.88-18.862-17.913-25.268-28.708-10.321-17.32-18.506-36.063-20.167-56.942a154.572,154.572,0,0,1,5.694-54.094c8.067-28.827,23.607-53.62,44.486-74.854,23.37-23.726,47.451-46.858,69.516-71.77,30.962-35.114,54.925-74.617,68.211-120.408,7.829-26.929,13.524-53.976,13.049-81.972a249.833,249.833,0,0,0-8.9-61.924c-8.778-31.911-24.437-60.738-38.436-90.276-9.253-19.336-12.575-38.791-4.152-59.314,6.525-16.015,20.048-23.251,34.284-29.538s27.4-6.05,41.52-4.033c35.351,4.982,67.855,19.93,101.19,31.792,28.708,10.2,57.772,18.387,88.022,21,20.4,1.779,40.927,1.661,61.449,2.491,34.046,1.3,68.33,1.424,102.258,4.271,41.757,3.559,80.786,16.608,114.476,42.706,18.981,14.71,37.012,30.606,54.806,46.74,20.167,18.15,40.215,36.419,59.077,55.993s37.368,40.808,49.231,66.669c10.439,22.777,18.031,46.146,19.455,71.058a214.712,214.712,0,0,1-2.135,42.35,388.865,388.865,0,0,1-22.421,84.819c-19.811,50.061-43.655,98.106-69.4,145.2-13.168,24.082-28.708,46.146-50.18,63.348-12.1,9.728-25.861,17.438-40.808,20.641-28,5.931-56.467,9.728-84.582,15.066-14.235,2.728-28.115,6.88-42.35,10.439s-31.2,7.829-46.977,11.032-34.639,5.813-51.959,8.779" transform="translate(56.735 41.764)" fill="none" stroke="#fff" stroke-miterlimit="10" stroke-width="2.384"/><path d="M1026.662,1033.345c-14.829-.949-27.64-7.829-40.808-13.761-20.048-8.778-40.452-17.557-62.754-18.269a271.446,271.446,0,0,0-34.046.593c-23.251,2.017-46.384,5.457-69.635,7.474-52.2,4.745-103.562-1.186-154.454-13.761-22.658-5.694-45.435-11.507-69.16-11.981-21-.356-41.639,1.779-61.687,7.592-25.031,7.355-49.824,15.422-74.736,22.9a141.05,141.05,0,0,1-86.48-.712c-17.676-5.813-34.165-14.591-47.333-29.539-17.794-20.285-28.945-43.3-37.012-68.8-10.558-32.979-7.829-65.364,2.254-97.394,8.067-25.505,23.488-46.5,41.757-65.6,20.76-21.472,41.876-42.706,61.805-65.127,36.182-40.69,64.178-86.6,78.651-139.863A210.092,210.092,0,0,0,480.5,487.18c-.83-40.452-12.93-77.108-33.69-111.155-12.219-20.167-23.607-40.69-32.386-62.754-7-17.557-3.44-34.284,2.966-50.536,9.728-24.082,29.776-37.487,52.2-47.333a109.138,109.138,0,0,1,25.861-8.3c21.709-3.44,43.3.475,63.585,7.711,22.777,8.185,44.723,18.506,66.788,28.827,39.859,18.625,81.023,32.623,124.916,36.3,22.065,1.9,44.248,2.373,66.313,3.322,42.35,1.661,84.7,3.084,125.865,14.71,22.9,6.406,43.537,17.794,63.7,30.25,22.421,14.117,40.69,33.216,60.026,51.01s41.52,38.317,61.805,58.009c28.352,27.64,50.417,59.789,64.059,97.275a188.266,188.266,0,0,1,10.8,60.026c.949,37.131-6.05,72.719-17.083,107.24s-24.793,65.957-37.012,99.055c-17.32,47.214-34.046,94.784-51.6,142-8.541,22.777-17.913,45.2-33.334,64.415-9.846,12.337-21.946,21.353-37.012,25.98" transform="translate(52.5 35.971)" fill="none" stroke="#fff" stroke-miterlimit="10" stroke-width="2.384"/><path d="M846.845,732.924c-9.253-.356-18.743,0-28-1.3-11.27-1.661-22.9-3.559-33.453-7.711-27.759-10.8-42.35-34.4-53.5-60.5a348.659,348.659,0,0,1-20.76-68.33c-9.016-44.486-7.474-88.378,2.491-132.033,7.118-31.674,27.522-52.2,57.3-62.517,7.474-2.61,16.133-3.084,24.2-2.491,26.81,1.779,50.654,12.693,72.719,27.285a493.374,493.374,0,0,1,68.686,54.569c22.421,21.59,40.334,46.265,47.214,76.99,2.61,11.27.83,23.726-.474,35.589-3.084,28.708-14.829,54.569-31.081,77.464a137.371,137.371,0,0,1-48.519,42.706c-17.913,9.372-36.3,16.845-56.111,20.285" transform="translate(131.364 71.733)" fill="none" stroke="#fff" stroke-miterlimit="10" stroke-width="2.384"/><path d="M181.759-203.9a469.175,469.175,0,0,0,33.335,88.5A181.739,181.739,0,0,0,263.85-54.784c18.506,15.066,40.215,24.556,61.212,35.351S363.023,1.208,380.7,14.139c19.574,14.473,24.2,34.521,22.9,56.111-1.542,26.929-14.235,50.18-28.945,71.77-23.963,35.351-52.315,66.906-83.87,95.614-19.574,17.676-39.029,35.351-57.772,53.857s-26.335,39.266-29.42,63.7c-.712,5.813-.83,12.219.83,17.557,6.406,20.167,16.252,38.791,31.081,53.976,20.4,21,41.757,41.283,62.28,62.161,23.37,23.726,42.706,49.587,45.316,85.294A95.022,95.022,0,0,1,332.3,626.5c-16.845,32.03-43.181,54.213-74.736,69.753,0,0-83.87,33.69-104.867,46.146s-37.724,25.98-50.18,45.435a191.466,191.466,0,0,0-29.064,80.549C71.2,887.006,69.062,905.75,75.468,923.9c7.948,22.658,20.048,42.825,37.368,59.789,20.523,20.167,41.52,39.978,60.619,61.568,29.894,33.928,58.365,69.042,87.429,103.8l6.643,7.118c11.27,9.965,22.3,20.285,34.284,29.3,19.218,14.591,40.808,25.268,63.229,33.572,46.028,16.964,93.716,20.879,142.117,17.32,26.217-2.017,52.2-5.813,78.295-8.779,20.523-2.373,40.808-1.661,59.789,7.474,20.879,10.083,36.419,27.522,19.692,56.349a150.656,150.656,0,0,1-38.08,42.943c-35.707,27.878-72.363,54.45-107.715,82.8" transform="translate(13.266 -40.356)" fill="none" stroke="#fff" stroke-miterlimit="10" stroke-width="2.384"/><path d="M1474.906,1364.521c-2.728-32.979,3.322-65.008,13.642-96.682s22.421-64.534,27.047-98.817c2.847-21,4.508-41.639-.237-62.28-2.847-12.456-7.711-24.556-12.693-36.3-13.405-31.911-33.572-59.433-54.332-86.6-25.742-33.69-51.247-67.618-75.685-102.258a265.138,265.138,0,0,1-38.792-83.514c-9.846-36.182-12.812-73.312-17.676-110.087-6.169-45.791-21.472-87.785-44.486-127.407-24.912-43.062-54.213-82.921-85.65-121s-62.754-71.177-96.563-104.512c-36.775-36.182-79.718-61.212-128.712-74.5-34.165-9.253-69.16-15.422-103.8-22.658a428.126,428.126,0,0,1-83.633-26.1c-7.711-3.44-14.71-8.423-21.709-13.168-27.522-19.1-50.536-43.3-73.787-67.5a615.328,615.328,0,0,0-60.026-55.637c-22.539-18.032-47.451-32.741-70.584-50.061-21-15.54-42.113-31.674-55.162-55.518A88.616,88.616,0,0,1,483.528-51.9c-8.541-35.707-.237-68.211,18.269-98.7" transform="translate(89.446 -30.427)" fill="none" stroke="#fff" stroke-miterlimit="10" stroke-width="2.384"/></g></g></g></g></g></g></svg>