<svg xmlns="http://www.w3.org/2000/svg" xmlns:xlink="http://www.w3.org/1999/xlink" width="58.354" height="11.9" viewBox="0 0 58.354 11.9"><defs><clipPath id="a"><rect width="58.354" height="11.9" fill="none"/></clipPath></defs><g clip-path="url(#a)"><path d="M106.265,1l-4.691,11.537h-2.46a.973.973,0,0,1-.687-.267,1.2,1.2,0,0,1-.362-.667l-.782-4.729-2.327,5.664H91.6L96.291,1h2.46a.992.992,0,0,1,.687.267,1.163,1.163,0,0,1,.362.687l.782,4.729L102.908,1Z" transform="translate(-74.132 -0.809)" fill="#fff"/><path d="M7.029-.006A5.568,5.568,0,0,1,8.974.3a2.86,2.86,0,0,1,1.259.858,2.346,2.346,0,0,1,.5,1.335,4.024,4.024,0,0,1-.343,1.754H7.6a.9.9,0,0,1-.5-.133.4.4,0,0,1-.114-.458l.038-.114.038-.114a.229.229,0,0,0,.038-.133,1.487,1.487,0,0,0,.057-.572q-.038-.229-.343-.229a.858.858,0,0,0-.629.229,2.384,2.384,0,0,0-.458.782.572.572,0,0,0,.133.61,4.729,4.729,0,0,0,.667.648l.9.706a3.776,3.776,0,0,1,.82.915,2.822,2.822,0,0,1,.42,1.22,3.375,3.375,0,0,1-.286,1.621,5.225,5.225,0,0,1-.706,1.259,3.127,3.127,0,0,1-.953.82,4.1,4.1,0,0,1-1.3.439,9.8,9.8,0,0,1-1.735.133,5.683,5.683,0,0,1-1.926-.286,2.8,2.8,0,0,1-1.259-.858A2.365,2.365,0,0,1-.008,9.4,4.119,4.119,0,0,1,.335,7.622H3.12a.8.8,0,0,1,.553.172q.21.172,0,.629l-.038.114a.5.5,0,0,0,0,.076,1.3,1.3,0,0,0-.038.534q.038.229.343.229a.839.839,0,0,0,.629-.229,2.365,2.365,0,0,0,.458-.782.553.553,0,0,0-.133-.61,4.462,4.462,0,0,0-.667-.61l-.9-.706a3.967,3.967,0,0,1-.858-.934,2.765,2.765,0,0,1-.42-1.22,3.375,3.375,0,0,1,.305-1.621,5.206,5.206,0,0,1,.687-1.259A3.127,3.127,0,0,1,4,.566a4.1,4.1,0,0,1,1.3-.439A9.84,9.84,0,0,1,7.029-.006" transform="translate(0.008 0.006)" fill="#fff"/><path d="M55.462-.01A4.558,4.558,0,0,1,57.255.3a2.346,2.346,0,0,1,1.106.934,2.765,2.765,0,0,1,.362,1.507,5.8,5.8,0,0,1-.439,2.021q-.4,1.106-.8,2.04l-.8,1.869a9.879,9.879,0,0,1-.877,1.716,3.452,3.452,0,0,1-.934.973,2.88,2.88,0,0,1-1.144.439,9.363,9.363,0,0,1-1.468.1H50.676A4.2,4.2,0,0,1,49.4,11.7a2.021,2.021,0,0,1-.992-.667,2.155,2.155,0,0,1-.42-1.259,5.035,5.035,0,0,1,.4-1.945l.591-1.487.572-1.449.629-1.545a6.5,6.5,0,0,1,.744-1.373A4.806,4.806,0,0,1,51.954.905a4.615,4.615,0,0,1,1.3-.687A4.691,4.691,0,0,1,54.776-.01Zm-.439,3.547a.515.515,0,0,0,0-.5.42.42,0,0,0-.4-.191A.858.858,0,0,0,54.051,3a1.43,1.43,0,0,0-.324.553L51.763,8.419q-.229.591-.133.763a.42.42,0,0,0,.4.172A.992.992,0,0,0,52.6,9.2a1.144,1.144,0,0,0,.381-.534Z" transform="translate(-38.834 0.01)" fill="#fff"/><path d="M160.862-.01A4.558,4.558,0,0,1,162.655.3a2.346,2.346,0,0,1,1.106.934,2.765,2.765,0,0,1,.362,1.507,5.8,5.8,0,0,1-.439,2.021q-.4,1.106-.8,2.04l-.8,1.85a9.878,9.878,0,0,1-.877,1.716,3.471,3.471,0,0,1-.934.973,2.88,2.88,0,0,1-1.144.439,9.363,9.363,0,0,1-1.468.1h-1.583a4.2,4.2,0,0,1-1.278-.191,2.021,2.021,0,0,1-.992-.667,2.155,2.155,0,0,1-.42-1.24,5.035,5.035,0,0,1,.4-1.945l.591-1.487.572-1.449.629-1.545a6.5,6.5,0,0,1,.744-1.373,4.787,4.787,0,0,1,1.03-1.068,4.615,4.615,0,0,1,1.278-.687,4.691,4.691,0,0,1,1.545-.229ZM160.4,3.537a.515.515,0,0,0,0-.5.42.42,0,0,0-.4-.21.858.858,0,0,0-.572.153,1.43,1.43,0,0,0-.324.553l-1.945,4.882q-.229.591-.133.763a.42.42,0,0,0,.4.172A.992.992,0,0,0,158,9.2a1.144,1.144,0,0,0,.381-.534Z" transform="translate(-124.134 0.01)" fill="#fff"/><path d="M205.954,1.019a3.128,3.128,0,0,1,1.43.42,2.155,2.155,0,0,1,.782.858,2.231,2.231,0,0,1,.229,1.106,3.8,3.8,0,0,1-.267,1.2,4.463,4.463,0,0,1-.591,1.068,5.225,5.225,0,0,1-.725.782,4.177,4.177,0,0,1-.8.534l-.782.362a1.278,1.278,0,0,1,.9,1.011,3.1,3.1,0,0,1-.229,1.793l-.953,2.365h-2.956a.61.61,0,0,1-.4-.172.4.4,0,0,1-.076-.5l1.049-2.594a.5.5,0,0,0-.038-.5.458.458,0,0,0-.4-.21h-.667L199.871,12.5H196.4L201.034,1h4.92Zm-1.468,3.337a.534.534,0,0,0,0-.5.4.4,0,0,0-.381-.21h-.629l-.744,1.812h.648a.915.915,0,0,0,.534-.21,1.22,1.22,0,0,0,.4-.5Z" transform="translate(-158.947 -0.809)" fill="#fff"/><path d="M259.966,1.239A2.346,2.346,0,0,0,258.86.3a3.8,3.8,0,0,0-.934-.248l-.8,1.716a.4.4,0,0,1-.362.229l-.172-.038a.4.4,0,0,1-.191-.515L257.087,0h-.725a4.691,4.691,0,0,0-1.545.248,4.615,4.615,0,0,0-1.278.687A4.787,4.787,0,0,0,252.51,2a6.5,6.5,0,0,0-.744,1.373l-.629,1.545-.572,1.449-.591,1.487a4.6,4.6,0,0,0-.4,1.945,2.155,2.155,0,0,0,.42,1.24,2.021,2.021,0,0,0,.992.667,4.2,4.2,0,0,0,1.3.191h1.564a9.363,9.363,0,0,0,1.468-.1,2.88,2.88,0,0,0,1.144-.439,3.451,3.451,0,0,0,.934-.973,9.855,9.855,0,0,0,.877-1.716l.8-1.869q.4-.953.8-2.04a5.818,5.818,0,0,0,.458-2.021,2.766,2.766,0,0,0-.362-1.507m-3.375,2.307-2.04,5.13a1.144,1.144,0,0,1-.381.534.992.992,0,0,1-.572.153.419.419,0,0,1-.4-.172q-.1-.172.133-.763l1.964-4.863a1.43,1.43,0,0,1,.324-.553.858.858,0,0,1,.572-.153.42.42,0,0,1,.4.21.515.515,0,0,1,0,.5" transform="translate(-201.975 0.001)" fill="#fff"/></g></svg>