<svg xmlns="http://www.w3.org/2000/svg" width="49.576" height="49.574" viewBox="0 0 49.576 49.574"><g transform="translate(0 0)"><path d="M24.788,0A24.787,24.787,0,1,0,49.576,24.788,24.787,24.787,0,0,0,24.788,0Zm9.54,36.56a1.873,1.873,0,0,1-1.049-.367,24.851,24.851,0,0,0-12.825-3.316,38.79,38.79,0,0,0-7.819.86,7.7,7.7,0,0,1-1.222.244,1.546,1.546,0,0,1-1.568-1.558,1.582,1.582,0,0,1,1.348-1.7,41.366,41.366,0,0,1,9.277-1.1,27.569,27.569,0,0,1,14.417,3.738,1.65,1.65,0,0,1,.981,1.648A1.544,1.544,0,0,1,34.328,36.562ZM37.029,30a2.284,2.284,0,0,1-1.242-.43,31.428,31.428,0,0,0-15.74-3.982,31.352,31.352,0,0,0-8.09,1.037,4.16,4.16,0,0,1-1.206.277,1.942,1.942,0,0,1-1.936-1.943,1.971,1.971,0,0,1,1.542-2.069,34.228,34.228,0,0,1,9.774-1.355,34.87,34.87,0,0,1,17.7,4.569,2.025,2.025,0,0,1,1.132,1.959A1.928,1.928,0,0,1,37.029,30Zm3.075-7.63a2.349,2.349,0,0,1-1.277-.382c-4.486-2.69-11.45-4.171-18.182-4.171a38.265,38.265,0,0,0-9.9,1.19,5.21,5.21,0,0,1-1.27.271,2.324,2.324,0,0,1-2.337-2.368A2.348,2.348,0,0,1,8.87,14.542a41.707,41.707,0,0,1,11.765-1.525c7.279,0,14.937,1.5,20.53,4.782a2.355,2.355,0,0,1,1.277,2.252A2.312,2.312,0,0,1,40.1,22.371Z" transform="translate(0 -0.002)" fill="#fff"/></g></svg>