<svg xmlns="http://www.w3.org/2000/svg" width="33.455" height="27.381" viewBox="0 0 33.455 27.381"><path d="M12.481,27.382a28.706,28.706,0,0,1-4.434-.352,20.809,20.809,0,0,1-6.065-2.207L0,23.739l2.146-.706c2.346-.771,3.773-1.25,5.54-2A7.369,7.369,0,0,1,3.9,16.644l-.5-1.516.409.063a7.445,7.445,0,0,1-.932-1.15,7.058,7.058,0,0,1-1.2-4.2l.094-1.323.792.307a7.4,7.4,0,0,1-.717-2.011,7.653,7.653,0,0,1,.815-5.152L3.351.4l.923,1.108a16.982,16.982,0,0,0,11,6.194,6.58,6.58,0,0,1,.4-3.5,6.545,6.545,0,0,1,2.661-3.051A7.992,7.992,0,0,1,22.974.016a7.409,7.409,0,0,1,4.554,1.878A15.289,15.289,0,0,0,29.2,1.338c.366-.138.78-.294,1.3-.472L32.405.207l-1.246,3.56c.082-.007.167-.013.255-.017l2.041-.092L32.249,5.306c-.069.094-.087.121-.111.158-.1.147-.218.329-1.874,2.54a3.119,3.119,0,0,0-.583,2.031,19.208,19.208,0,0,1-1.048,7.726,13.671,13.671,0,0,1-3.67,5.436,16.209,16.209,0,0,1-7.683,3.715A23.652,23.652,0,0,1,12.481,27.382Zm0,0" transform="translate(0 -0.001)" fill="#fff"/></svg>